<mxfile host="app.diagrams.net" modified="2025-08-29T04:03:48.000Z" agent="5.0 (Windows NT 10.0; Win64; x64) AppleWebKit/537.36 (KHTML, like Gecko) Chrome/127.0.0.0 Safari/537.36" etag="d1yWp-SgV0bYVp2eYj3x" version="25.0.0" type="browser">
  <diagram id="c4c6a992-80b6-96b6-9c42-d6105f2382d6" name="Page-1">
    <mxGraphModel dx="1295" dy="727" grid="1" gridSize="10" guides="1" tooltips="1" connect="1" arrows="1" fold="1" page="1" pageScale="1" pageWidth="850" pageHeight="1100" math="0" shadow="0">
      <root>
        <mxCell id="0" />
        <mxCell id="1" parent="0" />
        <mxCell id="2" value="Start" style="ellipse;whiteSpace=wrap;html=1;fillColor=#6a00ff;fontColor=#ffffff;strokeColor=#37007a;" vertex="1" parent="1">
          <mxGeometry x="365" y="40" width="120" height="50" as="geometry" />
        </mxCell>
        <mxCell id="3" value="Initialize product data" style="rounded=0;whiteSpace=wrap;html=1;fillColor=#dae8fc;strokeColor=#6c8ebf;" vertex="1" parent="1">
          <mxGeometry x="345" y="120" width="160" height="50" as="geometry" />
        </mxCell>
        <mxCell id="4" value="" style="endArrow=classic;html=1;rounded=0;exitX=0.5;exitY=1;exitDx=0;exitDy=0;entryX=0.5;entryY=0;entryDx=0;entryDy=0;" edge="1" parent="1" source="2" target="3">
          <mxGeometry width="50" height="50" relative="1" as="geometry">
            <mxPoint x="425" y="100" as="sourcePoint" />
            <mxPoint x="425" y="120" as="targetPoint" />
          </mxGeometry>
        </mxCell>
        <mxCell id="5" value="" style="endArrow=classic;html=1;rounded=0;exitX=0.5;exitY=1;exitDx=0;exitDy=0;entryX=0.5;entryY=0;entryDx=0;entryDy=0;" edge="1" parent="1" source="3" target="6">
          <mxGeometry width="50" height="50" relative="1" as="geometry">
            <mxPoint x="425" y="190" as="sourcePoint" />
            <mxPoint x="425" y="210" as="targetPoint" />
          </mxGeometry>
        </mxCell>
        <mxCell id="6" value="Display product list" style="rounded=0;whiteSpace=wrap;html=1;fillColor=#dae8fc;strokeColor=#6c8ebf;" vertex="1" parent="1">
          <mxGeometry x="345" y="200" width="160" height="50" as="geometry" />
        </mxCell>
        <mxCell id="7" value="" style="endArrow=classic;html=1;rounded=0;exitX=0.5;exitY=1;exitDx=0;exitDy=0;entryX=0.5;entryY=0;entryDx=0;entryDy=0;" edge="1" parent="1" source="6" target="8">
          <mxGeometry width="50" height="50" relative="1" as="geometry">
            <mxPoint x="425" y="270" as="sourcePoint" />
            <mxPoint x="425" y="290" as="targetPoint" />
          </mxGeometry>
        </mxCell>
        <mxCell id="8" value="User selects product" style="shape=parallelogram;perimeter=parallelogramPerimeter;whiteSpace=wrap;html=1;fixedSize=1;fillColor=#fff2cc;strokeColor=#d6b653;" vertex="1" parent="1">
          <mxGeometry x="345" y="280" width="160" height="50" as="geometry" />
        </mxCell>
        <mxCell id="9" value="" style="endArrow=classic;html=1;rounded=0;exitX=0.5;exitY=1;exitDx=0;exitDy=0;entryX=0.5;entryY=0;entryDx=0;entryDy=0;" edge="1" parent="1" source="8" target="10">
          <mxGeometry width="50" height="50" relative="1" as="geometry">
            <mxPoint x="425" y="350" as="sourcePoint" />
            <mxPoint x="425" y="370" as="targetPoint" />
          </mxGeometry>
        </mxCell>
        <mxCell id="10" value="Is selected product valid and in stock?" style="rhombus;whiteSpace=wrap;html=1;fillColor=#f8cecc;strokeColor=#b85450;" vertex="1" parent="1">
          <mxGeometry x="325" y="380" width="200" height="100" as="geometry" />
        </mxCell>
        <mxCell id="11" value="Yes" style="endArrow=classic;html=1;rounded=0;exitX=0.5;exitY=1;exitDx=0;exitDy=0;entryX=0.5;entryY=0;entryDx=0;entryDy=0;" edge="1" parent="1" source="10" target="12">
          <mxGeometry width="50" height="50" relative="1" as="geometry">
            <mxPoint x="425" y="500" as="sourcePoint" />
            <mxPoint x="425" y="520" as="targetPoint" />
          </mxGeometry>
        </mxCell>
        <mxCell id="12" value="User inserts payment" style="shape=parallelogram;perimeter=parallelogramPerimeter;whiteSpace=wrap;html=1;fixedSize=1;fillColor=#fff2cc;strokeColor=#d6b653;" vertex="1" parent="1">
          <mxGeometry x="345" y="510" width="160" height="50" as="geometry" />
        </mxCell>
        <mxCell id="13" value="" style="endArrow=classic;html=1;rounded=0;exitX=0.5;exitY=1;exitDx=0;exitDy=0;entryX=0.5;entryY=0;entryDx=0;entryDy=0;" edge="1" parent="1" source="12" target="14">
          <mxGeometry width="50" height="50" relative="1" as="geometry">
            <mxPoint x="425" y="580" as="sourcePoint" />
            <mxPoint x="425" y="600" as="targetPoint" />
          </mxGeometry>
        </mxCell>
        <mxCell id="14" value="Is payment sufficient?" style="rhombus;whiteSpace=wrap;html=1;fillColor=#f8cecc;strokeColor=#b85450;" vertex="1" parent="1">
          <mxGeometry x="350" y="600" width="150" height="80" as="geometry" />
        </mxCell>
        <mxCell id="15" value="Yes" style="endArrow=classic;html=1;rounded=0;exitX=0.5;exitY=1;exitDx=0;exitDy=0;entryX=0.5;entryY=0;entryDx=0;entryDy=0;" edge="1" parent="1" source="14" target="16">
          <mxGeometry width="50" height="50" relative="1" as="geometry">
            <mxPoint x="425" y="700" as="sourcePoint" />
            <mxPoint x="425" y="720" as="targetPoint" />
          </mxGeometry>
        </mxCell>
        <mxCell id="16" value="Dispense product, calculate and return change" style="rounded=0;whiteSpace=wrap;html=1;fillColor=#d5e8d4;strokeColor=#82b366;" vertex="1" parent="1">
          <mxGeometry x="325" y="710" width="200" height="60" as="geometry" />
        </mxCell>
        <mxCell id="17" value="" style="endArrow=classic;html=1;rounded=0;exitX=0.5;exitY=1;exitDx=0;exitDy=0;entryX=0.5;entryY=0;entryDx=0;entryDy=0;" edge="1" parent="1" source="16" target="18">
          <mxGeometry width="50" height="50" relative="1" as="geometry">
            <mxPoint x="425" y="790" as="sourcePoint" />
            <mxPoint x="425" y="810" as="targetPoint" />
          </mxGeometry>
        </mxCell>
        <mxCell id="18" value="Update stock data" style="rounded=0;whiteSpace=wrap;html=1;fillColor=#dae8fc;strokeColor=#6c8ebf;" vertex="1" parent="1">
          <mxGeometry x="345" y="800" width="160" height="50" as="geometry" />
        </mxCell>
        <mxCell id="19" value="" style="endArrow=classic;html=1;rounded=0;exitX=0.5;exitY=1;exitDx=0;exitDy=0;entryX=0.5;entryY=0;entryDx=0;entryDy=0;" edge="1" parent="1" source="18" target="20">
          <mxGeometry width="50" height="50" relative="1" as="geometry">
            <mxPoint x="425" y="870" as="sourcePoint" />
            <mxPoint x="425" y="890" as="targetPoint" />
          </mxGeometry>
        </mxCell>
        <mxCell id="20" value="Prompt user to continue" style="shape=parallelogram;perimeter=parallelogramPerimeter;whiteSpace=wrap;html=1;fixedSize=1;fillColor=#fff2cc;strokeColor=#d6b653;" vertex="1" parent="1">
          <mxGeometry x="345" y="880" width="160" height="50" as="geometry" />
        </mxCell>
        <mxCell id="21" value="" style="endArrow=classic;html=1;rounded=0;exitX=0.5;exitY=1;exitDx=0;exitDy=0;entryX=0.5;entryY=0;entryDx=0;entryDy=0;" edge="1" parent="1" source="20" target="22">
          <mxGeometry width="50" height="50" relative="1" as="geometry">
            <mxPoint x="425" y="950" as="sourcePoint" />
            <mxPoint x="425" y="970" as="targetPoint" />
          </mxGeometry>
        </mxCell>
        <mxCell id="22" value="User wants to continue?" style="rhombus;whiteSpace=wrap;html=1;fillColor=#f8cecc;strokeColor=#b85450;" vertex="1" parent="1">
          <mxGeometry x="345" y="970" width="160" height="80" as="geometry" />
        </mxCell>
        <mxCell id="23" value="Yes" style="edgeStyle=orthogonalEdgeStyle;html=1;rounded=0;entryX=0.5;entryY=0;entryDx=0;entryDy=0;" edge="1" parent="1" source="22" target="6">
          <mxGeometry relative="1" as="geometry">
            <mxPoint x="345" y="1010" as="sourcePoint" />
            <mxPoint x="290" y="225" as="targetPoint" />
            <Array as="points">
              <mxPoint x="200" y="1010" />
              <mxPoint x="200" y="225" />
            </Array>
          </mxGeometry>
        </mxCell>
        <mxCell id="24" value="No" style="endArrow=classic;html=1;rounded=0;exitX=1;exitY=0.5;exitDx=0;exitDy=0;" edge="1" parent="1" source="22">
          <mxGeometry width="50" height="50" relative="1" as="geometry">
            <mxPoint x="510" y="1010" as="sourcePoint" />
            <mxPoint x="590" y="1010" as="targetPoint" />
          </mxGeometry>
        </mxCell>
        <mxCell id="25" value="End" style="ellipse;whiteSpace=wrap;html=1;fillColor=#e51400;fontColor=#ffffff;strokeColor=#b20000;" vertex="1" parent="1">
          <mxGeometry x="590" y="985" width="120" height="50" as="geometry" />
        </mxCell>
        <mxCell id="26" value="No" style="edgeStyle=orthogonalEdgeStyle;html=1;rounded=0;entryX=0.5;entryY=0;entryDx=0;entryDy=0;exitX=0;exitY=0.5;exitDx=0;exitDy=0;" edge="1" parent="1" source="14" target="20">
          <mxGeometry relative="1" as="geometry">
            <mxPoint x="350" y="640" as="sourcePoint" />
            <mxPoint x="250" y="880" as="targetPoint" />
            <Array as="points">
              <mxPoint x="200" y="640" />
              <mxPoint x="200" y="905" />
            </Array>
          </mxGeometry>
        </mxCell>
        <mxCell id="27" value="No" style="endArrow=classic;html=1;rounded=0;exitX=0;exitY=0.5;exitDx=0;exitDy=0;" edge="1" parent="1" source="10">
          <mxGeometry width="50" height="50" relative="1" as="geometry">
            <mxPoint x="325" y="430" as="sourcePoint" />
            <mxPoint x="250" y="430" as="targetPoint" />
          </mxGeometry>
        </mxCell>
        <mxCell id="28" value="" style="endArrow=classic;html=1;rounded=0;entryX=0.5;entryY=0;entryDx=0;entryDy=0;exitX=0;exitY=0.5;exitDx=0;exitDy=0;" edge="1" parent="1" source="27" target="20">
          <mxGeometry width="50" height="50" relative="1" as="geometry">
            <mxPoint x="250" y="430" as="sourcePoint" />
            <mxPoint x="250" y="880" as="targetPoint" />
            <Array as="points">
              <mxPoint x="250" y="905" />
            </Array>
          </mxGeometry>
        </mxCell>
      </root>
    </mxGraphModel>
  </diagram>
</mxfile>